<svg width="322" height="220" viewBox="0 0 322 220" fill="none" xmlns="http://www.w3.org/2000/svg">
<path d="M24.23 40.1338V27.5156H29.2083C30.1653 27.5156 30.9806 27.6984 31.6543 28.064C32.3279 28.4254 32.8413 28.9286 33.1946 29.5735C33.5519 30.2142 33.7306 30.9536 33.7306 31.7915C33.7306 32.6294 33.5499 33.3688 33.1884 34.0095C32.827 34.6503 32.3033 35.1494 31.6173 35.5067C30.9355 35.8641 30.1099 36.0427 29.1405 36.0427H25.9675V33.9048H28.7092C29.2226 33.9048 29.6457 33.8165 29.9784 33.6399C30.3152 33.4591 30.5658 33.2106 30.7301 32.8944C30.8985 32.574 30.9827 32.2064 30.9827 31.7915C30.9827 31.3725 30.8985 31.007 30.7301 30.6948C30.5658 30.3785 30.3152 30.1341 29.9784 29.9616C29.6416 29.785 29.2144 29.6967 28.6969 29.6967H26.8978V40.1338H24.23ZM35.4142 40.1338V30.6702H37.9587V32.3214H38.0573C38.2298 31.734 38.5194 31.2904 38.9261 30.9905C39.3327 30.6866 39.8009 30.5346 40.3308 30.5346C40.4623 30.5346 40.604 30.5428 40.7559 30.5592C40.9079 30.5757 41.0414 30.5983 41.1564 30.627V32.956C41.0332 32.919 40.8627 32.8861 40.645 32.8574C40.4273 32.8286 40.2281 32.8143 40.0474 32.8143C39.6613 32.8143 39.3163 32.8985 39.0123 33.0669C38.7125 33.2312 38.4742 33.4612 38.2976 33.7569C38.1251 34.0527 38.0388 34.3936 38.0388 34.7797V40.1338H35.4142ZM46.3488 40.3186C45.3917 40.3186 44.5641 40.1153 43.8658 39.7087C43.1716 39.2979 42.6356 38.727 42.2577 37.9958C41.8798 37.2606 41.6909 36.4083 41.6909 35.4389C41.6909 34.4614 41.8798 33.607 42.2577 32.8759C42.6356 32.1406 43.1716 31.5697 43.8658 31.163C44.5641 30.7523 45.3917 30.5469 46.3488 30.5469C47.3058 30.5469 48.1314 30.7523 48.8256 31.163C49.5239 31.5697 50.0619 32.1406 50.4398 32.8759C50.8177 33.607 51.0067 34.4614 51.0067 35.4389C51.0067 36.4083 50.8177 37.2606 50.4398 37.9958C50.0619 38.727 49.5239 39.2979 48.8256 39.7087C48.1314 40.1153 47.3058 40.3186 46.3488 40.3186ZM46.3611 38.2854C46.7965 38.2854 47.16 38.1622 47.4516 37.9157C47.7433 37.6652 47.963 37.3243 48.1109 36.893C48.2629 36.4617 48.3389 35.9709 48.3389 35.4205C48.3389 34.8701 48.2629 34.3792 48.1109 33.9479C47.963 33.5166 47.7433 33.1757 47.4516 32.9252C47.16 32.6746 46.7965 32.5493 46.3611 32.5493C45.9216 32.5493 45.5519 32.6746 45.2521 32.9252C44.9563 33.1757 44.7325 33.5166 44.5805 33.9479C44.4326 34.3792 44.3587 34.8701 44.3587 35.4205C44.3587 35.9709 44.4326 36.4617 44.5805 36.893C44.7325 37.3243 44.9563 37.6652 45.2521 37.9157C45.5519 38.1622 45.9216 38.2854 46.3611 38.2854ZM52.7133 43.6827V30.6702H55.301V32.2597H55.4181C55.5331 32.0051 55.6995 31.7463 55.9172 31.4834C56.139 31.2164 56.4265 30.9946 56.7797 30.818C57.1371 30.6373 57.5807 30.5469 58.1106 30.5469C58.8006 30.5469 59.4373 30.7277 60.0205 31.0891C60.6038 31.4465 61.07 31.9866 61.4191 32.7095C61.7683 33.4283 61.9428 34.3299 61.9428 35.4143C61.9428 36.4699 61.7724 37.3612 61.4315 38.0883C61.0946 38.8112 60.6346 39.3595 60.0513 39.7333C59.4722 40.103 58.8232 40.2878 58.1044 40.2878C57.5951 40.2878 57.1617 40.2036 56.8044 40.0352C56.4511 39.8668 56.1616 39.6553 55.9356 39.4006C55.7097 39.1418 55.5372 38.881 55.4181 38.6181H55.338V43.6827H52.7133ZM55.2826 35.402C55.2826 35.9647 55.3606 36.4555 55.5167 36.8745C55.6728 37.2935 55.8987 37.62 56.1944 37.8541C56.4902 38.0842 56.8496 38.1992 57.2726 38.1992C57.6998 38.1992 58.0613 38.0821 58.357 37.848C58.6527 37.6097 58.8766 37.2811 59.0286 36.8622C59.1847 36.4391 59.2627 35.9524 59.2627 35.402C59.2627 34.8557 59.1867 34.3751 59.0347 33.9602C58.8828 33.5454 58.6589 33.2209 58.3632 32.9868C58.0674 32.7526 57.7039 32.6356 57.2726 32.6356C56.8455 32.6356 56.484 32.7485 56.1883 32.9744C55.8966 33.2004 55.6728 33.5207 55.5167 33.9356C55.3606 34.3505 55.2826 34.8392 55.2826 35.402ZM68.0055 40.3186C67.032 40.3186 66.1941 40.1215 65.4917 39.7271C64.7934 39.3287 64.2553 38.766 63.8775 38.039C63.4996 37.3078 63.3106 36.4432 63.3106 35.4451C63.3106 34.4716 63.4996 33.6173 63.8775 32.882C64.2553 32.1468 64.7873 31.5738 65.4732 31.163C66.1633 30.7523 66.9724 30.5469 67.9007 30.5469C68.5251 30.5469 69.1063 30.6476 69.6444 30.8488C70.1865 31.046 70.6589 31.3438 71.0614 31.7422C71.4681 32.1406 71.7844 32.6417 72.0103 33.2455C72.2362 33.8452 72.3491 34.5476 72.3491 35.3527V36.0735H64.358V34.447H69.8785C69.8785 34.0691 69.7963 33.7343 69.632 33.4427C69.4677 33.1511 69.2398 32.9231 68.9481 32.7588C68.6606 32.5904 68.3259 32.5062 67.9439 32.5062C67.5454 32.5062 67.1922 32.5986 66.8841 32.7835C66.5802 32.9642 66.3419 33.2086 66.1694 33.5166C65.9969 33.8206 65.9086 34.1595 65.9045 34.5332V36.0797C65.9045 36.548 65.9908 36.9525 66.1633 37.2935C66.3399 37.6344 66.5884 37.8973 66.9088 38.0821C67.2292 38.2669 67.6091 38.3594 68.0486 38.3594C68.3402 38.3594 68.6072 38.3183 68.8496 38.2361C69.0919 38.154 69.2993 38.0308 69.4718 37.8665C69.6444 37.7022 69.7758 37.5009 69.8662 37.2627L72.2937 37.4229C72.1705 38.0061 71.9179 38.5154 71.5359 38.9508C71.158 39.3821 70.6692 39.7189 70.0695 39.9613C69.4739 40.1995 68.7859 40.3186 68.0055 40.3186ZM74.062 40.1338V30.6702H76.6065V32.3214H76.7051C76.8776 31.734 77.1672 31.2904 77.5739 30.9905C77.9805 30.6866 78.4487 30.5346 78.9786 30.5346C79.1101 30.5346 79.2518 30.5428 79.4037 30.5592C79.5557 30.5757 79.6892 30.5983 79.8042 30.627V32.956C79.681 32.919 79.5105 32.8861 79.2928 32.8574C79.0751 32.8286 78.8759 32.8143 78.6952 32.8143C78.3091 32.8143 77.9641 32.8985 77.6601 33.0669C77.3603 33.2312 77.122 33.4612 76.9454 33.7569C76.7729 34.0527 76.6866 34.3936 76.6866 34.7797V40.1338H74.062ZM86.6694 30.6702V32.6417H80.9702V30.6702H86.6694ZM82.2641 28.4028H84.8888V37.2257C84.8888 37.468 84.9257 37.657 84.9997 37.7925C85.0736 37.924 85.1763 38.0164 85.3077 38.0698C85.4433 38.1232 85.5994 38.1499 85.776 38.1499C85.8992 38.1499 86.0224 38.1396 86.1457 38.1191C86.2689 38.0944 86.3634 38.0759 86.4291 38.0636L86.8419 40.0167C86.7104 40.0578 86.5256 40.105 86.2874 40.1584C86.0491 40.2159 85.7596 40.2509 85.4186 40.2632C84.7861 40.2878 84.2316 40.2036 83.7551 40.0106C83.2827 39.8175 82.9151 39.5177 82.6522 39.111C82.3894 38.7044 82.26 38.191 82.2641 37.5707V28.4028ZM89.9995 43.6827C89.6668 43.6827 89.3546 43.656 89.063 43.6026C88.7755 43.5533 88.5372 43.4896 88.3483 43.4116L88.9398 41.4523C89.2478 41.5468 89.5251 41.5981 89.7715 41.6063C90.0221 41.6145 90.2377 41.557 90.4185 41.4338C90.6033 41.3106 90.7532 41.1011 90.8682 40.8054L91.0223 40.4049L87.6274 30.6702H90.3877L92.3469 37.62H92.4455L94.4233 30.6702H97.202L93.5237 41.1566C93.3471 41.6659 93.1068 42.1095 92.8029 42.4874C92.503 42.8694 92.1231 43.1631 91.663 43.3684C91.203 43.5779 90.6485 43.6827 89.9995 43.6827ZM102.129 29.7152V27.5156H112.493V29.7152H108.629V40.1338H105.992V29.7152H102.129ZM114.686 43.6827C114.353 43.6827 114.041 43.656 113.749 43.6026C113.462 43.5533 113.224 43.4896 113.035 43.4116L113.626 41.4523C113.934 41.5468 114.212 41.5981 114.458 41.6063C114.709 41.6145 114.924 41.557 115.105 41.4338C115.29 41.3106 115.44 41.1011 115.555 40.8054L115.709 40.4049L112.314 30.6702H115.074L117.033 37.62H117.132L119.11 30.6702H121.888L118.21 41.1566C118.034 41.6659 117.793 42.1095 117.489 42.4874C117.189 42.8694 116.81 43.1631 116.35 43.3684C115.889 43.5779 115.335 43.6827 114.686 43.6827ZM123.232 43.6827V30.6702H125.819V32.2597H125.936C126.051 32.0051 126.218 31.7463 126.435 31.4834C126.657 31.2164 126.945 30.9946 127.298 30.818C127.655 30.6373 128.099 30.5469 128.629 30.5469C129.319 30.5469 129.956 30.7277 130.539 31.0891C131.122 31.4465 131.588 31.9866 131.937 32.7095C132.287 33.4283 132.461 34.3299 132.461 35.4143C132.461 36.4699 132.291 37.3612 131.95 38.0883C131.613 38.8112 131.153 39.3595 130.57 39.7333C129.99 40.103 129.341 40.2878 128.623 40.2878C128.113 40.2878 127.68 40.2036 127.323 40.0352C126.969 39.8668 126.68 39.6553 126.454 39.4006C126.228 39.1418 126.055 38.881 125.936 38.6181H125.856V43.6827H123.232ZM125.801 35.402C125.801 35.9647 125.879 36.4555 126.035 36.8745C126.191 37.2935 126.417 37.62 126.713 37.8541C127.008 38.0842 127.368 38.1992 127.791 38.1992C128.218 38.1992 128.58 38.0821 128.875 37.848C129.171 37.6097 129.395 37.2811 129.547 36.8622C129.703 36.4391 129.781 35.9524 129.781 35.402C129.781 34.8557 129.705 34.3751 129.553 33.9602C129.401 33.5454 129.177 33.2209 128.881 32.9868C128.586 32.7526 128.222 32.6356 127.791 32.6356C127.364 32.6356 127.002 32.7485 126.707 32.9744C126.415 33.2004 126.191 33.5207 126.035 33.9356C125.879 34.3505 125.801 34.8392 125.801 35.402ZM138.524 40.3186C137.55 40.3186 136.712 40.1215 136.01 39.7271C135.312 39.3287 134.774 38.766 134.396 38.039C134.018 37.3078 133.829 36.4432 133.829 35.4451C133.829 34.4716 134.018 33.6173 134.396 32.882C134.774 32.1468 135.306 31.5738 135.991 31.163C136.682 30.7523 137.491 30.5469 138.419 30.5469C139.043 30.5469 139.625 30.6476 140.163 30.8488C140.705 31.046 141.177 31.3438 141.58 31.7422C141.986 32.1406 142.303 32.6417 142.529 33.2455C142.754 33.8452 142.867 34.5476 142.867 35.3527V36.0735H134.876V34.447H140.397C140.397 34.0691 140.315 33.7343 140.15 33.4427C139.986 33.1511 139.758 32.9231 139.466 32.7588C139.179 32.5904 138.844 32.5062 138.462 32.5062C138.064 32.5062 137.71 32.5986 137.402 32.7835C137.098 32.9642 136.86 33.2086 136.688 33.5166C136.515 33.8206 136.427 34.1595 136.423 34.5332V36.0797C136.423 36.548 136.509 36.9525 136.682 37.2935C136.858 37.6344 137.107 37.8973 137.427 38.0821C137.747 38.2669 138.127 38.3594 138.567 38.3594C138.858 38.3594 139.125 38.3183 139.368 38.2361C139.61 38.154 139.818 38.0308 139.99 37.8665C140.163 37.7022 140.294 37.5009 140.384 37.2627L142.812 37.4229C142.689 38.0061 142.436 38.5154 142.054 38.9508C141.676 39.3821 141.187 39.7189 140.588 39.9613C139.992 40.1995 139.304 40.3186 138.524 40.3186Z" fill="#333333"/>
<path d="M291.046 30.4317L296.333 35.6909C296.577 35.962 296.577 36.3687 296.333 36.6127L295.709 37.2362C295.465 37.4802 295.058 37.4802 294.787 37.2362L290.613 33.0613L286.411 37.2362C286.139 37.4802 285.733 37.4802 285.489 37.2362L284.865 36.6127C284.621 36.3687 284.621 35.962 284.865 35.6909L290.152 30.4317C290.396 30.1877 290.802 30.1877 291.046 30.4317Z" fill="#333333"/>
<rect x="23.7116" y="64.1955" width="19.6633" height="19.6633" rx="4.04833" stroke="#CCCCCC" stroke-width="1.15667"/>
<path d="M56.9461 80.1953V68.4183H58.3723V73.6628H64.6518V68.4183H66.0779V80.1953H64.6518V74.9279H58.3723V80.1953H56.9461ZM72.3373 80.3793C71.5399 80.3793 70.8402 80.1896 70.2384 79.81C69.6403 79.4305 69.1726 78.8995 68.8352 78.2171C68.5017 77.5348 68.3349 76.7374 68.3349 75.825C68.3349 74.9049 68.5017 74.1017 68.8352 73.4155C69.1726 72.7293 69.6403 72.1964 70.2384 71.8169C70.8402 71.4373 71.5399 71.2476 72.3373 71.2476C73.1347 71.2476 73.8324 71.4373 74.4305 71.8169C75.0323 72.1964 75.5 72.7293 75.8336 73.4155C76.1709 74.1017 76.3396 74.9049 76.3396 75.825C76.3396 76.7374 76.1709 77.5348 75.8336 78.2171C75.5 78.8995 75.0323 79.4305 74.4305 79.81C73.8324 80.1896 73.1347 80.3793 72.3373 80.3793ZM72.3373 79.1602C72.943 79.1602 73.4414 79.005 73.8324 78.6944C74.2234 78.3839 74.5129 77.9756 74.7007 77.4696C74.8886 76.9635 74.9825 76.4153 74.9825 75.825C74.9825 75.2346 74.8886 74.6844 74.7007 74.1746C74.5129 73.6647 74.2234 73.2526 73.8324 72.9382C73.4414 72.6239 72.943 72.4667 72.3373 72.4667C71.7316 72.4667 71.2332 72.6239 70.8422 72.9382C70.4511 73.2526 70.1617 73.6647 69.9738 74.1746C69.786 74.6844 69.6921 75.2346 69.6921 75.825C69.6921 76.4153 69.786 76.9635 69.9738 77.4696C70.1617 77.9756 70.4511 78.3839 70.8422 78.6944C71.2332 79.005 71.7316 79.1602 72.3373 79.1602ZM82.2525 71.3626V72.5127H77.6752V71.3626H82.2525ZM79.0093 69.2464H80.3664V77.6651C80.3664 78.0485 80.422 78.336 80.5331 78.5277C80.6481 78.7155 80.7938 78.842 80.9702 78.9072C81.1504 78.9685 81.3401 78.9992 81.5395 78.9992C81.689 78.9992 81.8117 78.9915 81.9075 78.9762C82.0033 78.957 82.08 78.9417 82.1375 78.9302L82.4135 80.1493C82.3215 80.1838 82.1931 80.2183 82.0283 80.2528C81.8634 80.2912 81.6545 80.3103 81.4015 80.3103C81.0181 80.3103 80.6424 80.2279 80.2744 80.0631C79.9102 79.8982 79.6073 79.6471 79.3658 79.3097C79.1281 78.9724 79.0093 78.5468 79.0093 78.0331V69.2464ZM87.9024 80.3793C87.0513 80.3793 86.3172 80.1915 85.6999 79.8158C85.0866 79.4363 84.6131 78.9072 84.2796 78.2287C83.9499 77.5463 83.785 76.7527 83.785 75.848C83.785 74.9432 83.9499 74.1458 84.2796 73.4558C84.6131 72.7619 85.077 72.2213 85.6712 71.8341C86.2692 71.4431 86.967 71.2476 87.7644 71.2476C88.2244 71.2476 88.6787 71.3242 89.1272 71.4776C89.5758 71.6309 89.984 71.8801 90.3521 72.2252C90.7201 72.5664 91.0134 73.0187 91.2319 73.5823C91.4504 74.1458 91.5597 74.8397 91.5597 75.6639V76.239H84.7511V75.0659H90.1796C90.1796 74.5675 90.0799 74.1228 89.8805 73.7318C89.685 73.3407 89.4052 73.0321 89.041 72.806C88.6806 72.5798 88.2551 72.4667 87.7644 72.4667C87.2238 72.4667 86.7561 72.6009 86.3612 72.8692C85.9702 73.1337 85.6693 73.4788 85.4584 73.9043C85.2476 74.3298 85.1421 74.786 85.1421 75.2729V76.055C85.1421 76.722 85.2572 77.2875 85.4872 77.7514C85.721 78.2114 86.045 78.5622 86.459 78.8037C86.873 79.0414 87.3542 79.1602 87.9024 79.1602C88.2589 79.1602 88.5809 79.1104 88.8685 79.0107C89.1598 78.9072 89.4109 78.7539 89.6218 78.5507C89.8326 78.3437 89.9955 78.0868 90.1106 77.7801L91.4217 78.1481C91.2837 78.5928 91.0517 78.9839 90.7259 79.3212C90.4 79.6548 89.9975 79.9155 89.5183 80.1033C89.039 80.2873 88.5004 80.3793 87.9024 80.3793ZM94.9812 68.4183V80.1953H93.6241V68.4183H94.9812Z" fill="#333333"/>
<rect x="23.7116" y="101.208" width="19.6633" height="19.6633" rx="4.04833" stroke="#CCCCCC" stroke-width="1.15667"/>
<path d="M56.9461 117.208V105.431H60.9255C61.8455 105.431 62.6008 105.588 63.1912 105.903C63.7815 106.213 64.2186 106.641 64.5023 107.185C64.7859 107.729 64.9278 108.349 64.9278 109.043C64.9278 109.736 64.7859 110.352 64.5023 110.888C64.2186 111.425 63.7835 111.847 63.1969 112.154C62.6104 112.456 61.8609 112.608 60.9485 112.608H57.7282V111.32H60.9025C61.5312 111.32 62.0372 111.228 62.4206 111.044C62.8078 110.86 63.0876 110.599 63.2602 110.262C63.4365 109.92 63.5247 109.514 63.5247 109.043C63.5247 108.571 63.4365 108.159 63.2602 107.806C63.0838 107.453 62.802 107.181 62.4148 106.99C62.0276 106.794 61.5158 106.696 60.8795 106.696H58.3723V117.208H56.9461ZM62.4896 111.918L65.3878 117.208H63.7317L60.8795 111.918H62.4896ZM70.7286 117.392C69.8775 117.392 69.1434 117.204 68.5262 116.829C67.9128 116.449 67.4393 115.92 67.1058 115.242C66.7761 114.559 66.6112 113.766 66.6112 112.861C66.6112 111.956 66.7761 111.159 67.1058 110.469C67.4393 109.775 67.9032 109.234 68.4974 108.847C69.0954 108.456 69.7932 108.26 70.5906 108.26C71.0506 108.26 71.5049 108.337 71.9534 108.49C72.402 108.644 72.8103 108.893 73.1783 109.238C73.5463 109.579 73.8396 110.032 74.0581 110.595C74.2766 111.159 74.3859 111.853 74.3859 112.677V113.252H67.5773V112.079H73.0058C73.0058 111.58 72.9061 111.136 72.7067 110.745C72.5112 110.354 72.2314 110.045 71.8672 109.819C71.5068 109.593 71.0813 109.48 70.5906 109.48C70.05 109.48 69.5823 109.614 69.1875 109.882C68.7964 110.147 68.4955 110.492 68.2846 110.917C68.0738 111.343 67.9684 111.799 67.9684 112.286V113.068C67.9684 113.735 68.0834 114.3 68.3134 114.764C68.5472 115.224 68.8712 115.575 69.2852 115.817C69.6992 116.054 70.1804 116.173 70.7286 116.173C71.0851 116.173 71.4071 116.123 71.6947 116.024C71.986 115.92 72.2371 115.767 72.448 115.564C72.6588 115.357 72.8218 115.1 72.9368 114.793L74.2479 115.161C74.1099 115.606 73.8779 115.997 73.5521 116.334C73.2262 116.668 72.8237 116.928 72.3445 117.116C71.8653 117.3 71.3266 117.392 70.7286 117.392ZM82.7068 110.354L81.4877 110.699C81.411 110.495 81.298 110.298 81.1484 110.106C81.0028 109.911 80.8034 109.75 80.5504 109.623C80.2974 109.497 79.9734 109.434 79.5786 109.434C79.038 109.434 78.5876 109.558 78.2272 109.807C77.8707 110.053 77.6924 110.365 77.6924 110.745C77.6924 111.082 77.8151 111.348 78.0604 111.544C78.3058 111.739 78.6892 111.902 79.2105 112.033L80.5216 112.355C81.3114 112.546 81.8998 112.84 82.287 113.235C82.6742 113.626 82.8678 114.13 82.8678 114.747C82.8678 115.253 82.7222 115.705 82.4308 116.104C82.1433 116.503 81.7407 116.817 81.2232 117.047C80.7057 117.277 80.1038 117.392 79.4175 117.392C78.5166 117.392 77.771 117.197 77.1806 116.806C76.5902 116.415 76.2165 115.843 76.0593 115.092L77.3474 114.77C77.4701 115.245 77.702 115.602 78.0432 115.84C78.3882 116.077 78.8387 116.196 79.3945 116.196C80.0271 116.196 80.5293 116.062 80.9012 115.794C81.2769 115.521 81.4647 115.196 81.4647 114.816C81.4647 114.509 81.3574 114.252 81.1427 114.045C80.928 113.835 80.5983 113.677 80.1536 113.574L78.6815 113.229C77.8726 113.037 77.2784 112.74 76.8988 112.338C76.5231 111.931 76.3353 111.423 76.3353 110.814C76.3353 110.315 76.4752 109.874 76.7551 109.491C77.0388 109.108 77.4241 108.807 77.9109 108.588C78.4016 108.37 78.9575 108.26 79.5786 108.26C80.4526 108.26 81.1389 108.452 81.6372 108.836C82.1394 109.219 82.496 109.725 82.7068 110.354ZM88.499 117.392C87.7016 117.392 87.0019 117.202 86.4001 116.823C85.802 116.443 85.3343 115.912 84.9969 115.23C84.6634 114.548 84.4967 113.75 84.4967 112.838C84.4967 111.918 84.6634 111.115 84.9969 110.428C85.3343 109.742 85.802 109.209 86.4001 108.83C87.0019 108.45 87.7016 108.26 88.499 108.26C89.2964 108.26 89.9941 108.45 90.5922 108.83C91.194 109.209 91.6617 109.742 91.9953 110.428C92.3326 111.115 92.5013 111.918 92.5013 112.838C92.5013 113.75 92.3326 114.548 91.9953 115.23C91.6617 115.912 91.194 116.443 90.5922 116.823C89.9941 117.202 89.2964 117.392 88.499 117.392ZM88.499 116.173C89.1047 116.173 89.6031 116.018 89.9941 115.707C90.3851 115.397 90.6746 114.989 90.8624 114.482C91.0503 113.976 91.1442 113.428 91.1442 112.838C91.1442 112.247 91.0503 111.697 90.8624 111.187C90.6746 110.678 90.3851 110.265 89.9941 109.951C89.6031 109.637 89.1047 109.48 88.499 109.48C87.8933 109.48 87.3949 109.637 87.0039 109.951C86.6128 110.265 86.3234 110.678 86.1355 111.187C85.9477 111.697 85.8538 112.247 85.8538 112.838C85.8538 113.428 85.9477 113.976 86.1355 114.482C86.3234 114.989 86.6128 115.397 87.0039 115.707C87.3949 116.018 87.8933 116.173 88.499 116.173ZM94.5729 117.208V108.375H95.884V109.71H95.976C96.137 109.273 96.4284 108.918 96.8501 108.646C97.2718 108.374 97.7472 108.237 98.2762 108.237C98.3759 108.237 98.5005 108.239 98.65 108.243C98.7995 108.247 98.9126 108.253 98.9893 108.26V109.641C98.9433 109.629 98.8379 109.612 98.673 109.589C98.512 109.562 98.3414 109.549 98.1612 109.549C97.7318 109.549 97.3485 109.639 97.0111 109.819C96.6776 109.995 96.4131 110.241 96.2176 110.555C96.0259 110.865 95.93 111.22 95.93 111.619V117.208H94.5729ZM104.993 108.375V109.526H100.415V108.375H104.993ZM101.75 106.259H103.107V114.678C103.107 115.061 103.162 115.349 103.273 115.541C103.388 115.728 103.534 115.855 103.71 115.92C103.891 115.981 104.08 116.012 104.28 116.012C104.429 116.012 104.552 116.004 104.648 115.989C104.744 115.97 104.82 115.955 104.878 115.943L105.154 117.162C105.062 117.197 104.933 117.231 104.769 117.266C104.604 117.304 104.395 117.323 104.142 117.323C103.758 117.323 103.383 117.241 103.015 117.076C102.65 116.911 102.348 116.66 102.106 116.323C101.868 115.985 101.75 115.56 101.75 115.046V106.259Z" fill="#333333"/>
<rect x="23.7116" y="138.222" width="19.6633" height="19.6633" rx="4.04833" stroke="#CCCCCC" stroke-width="1.15667"/>
<path d="M56.9461 154.222V142.445H58.3723V147.689H64.6518V142.445H66.0779V154.222H64.6518V148.954H58.3723V154.222H56.9461ZM72.3373 154.406C71.5399 154.406 70.8402 154.216 70.2384 153.836C69.6403 153.457 69.1726 152.926 68.8352 152.243C68.5017 151.561 68.3349 150.764 68.3349 149.851C68.3349 148.931 68.5017 148.128 68.8352 147.442C69.1726 146.756 69.6403 146.223 70.2384 145.843C70.8402 145.464 71.5399 145.274 72.3373 145.274C73.1347 145.274 73.8324 145.464 74.4305 145.843C75.0323 146.223 75.5 146.756 75.8336 147.442C76.1709 148.128 76.3396 148.931 76.3396 149.851C76.3396 150.764 76.1709 151.561 75.8336 152.243C75.5 152.926 75.0323 153.457 74.4305 153.836C73.8324 154.216 73.1347 154.406 72.3373 154.406ZM72.3373 153.186C72.943 153.186 73.4414 153.031 73.8324 152.721C74.2234 152.41 74.5129 152.002 74.7007 151.496C74.8886 150.99 74.9825 150.442 74.9825 149.851C74.9825 149.261 74.8886 148.711 74.7007 148.201C74.5129 147.691 74.2234 147.279 73.8324 146.964C73.4414 146.65 72.943 146.493 72.3373 146.493C71.7316 146.493 71.2332 146.65 70.8422 146.964C70.4511 147.279 70.1617 147.691 69.9738 148.201C69.786 148.711 69.6921 149.261 69.6921 149.851C69.6921 150.442 69.786 150.99 69.9738 151.496C70.1617 152.002 70.4511 152.41 70.8422 152.721C71.2332 153.031 71.7316 153.186 72.3373 153.186ZM84.6677 147.367L83.4486 147.712C83.372 147.509 83.2589 147.311 83.1094 147.12C82.9637 146.924 82.7643 146.763 82.5113 146.637C82.2583 146.51 81.9343 146.447 81.5395 146.447C80.9989 146.447 80.5485 146.572 80.1881 146.821C79.8316 147.066 79.6533 147.378 79.6533 147.758C79.6533 148.095 79.776 148.362 80.0213 148.557C80.2667 148.753 80.6501 148.916 81.1714 149.046L82.4826 149.368C83.2723 149.56 83.8607 149.853 84.2479 150.248C84.6351 150.639 84.8287 151.143 84.8287 151.76C84.8287 152.266 84.6831 152.719 84.3917 153.117C84.1042 153.516 83.7017 153.831 83.1841 154.061C82.6666 154.291 82.0647 154.406 81.3785 154.406C80.4776 154.406 79.7319 154.21 79.1415 153.819C78.5511 153.428 78.1774 152.857 78.0202 152.105L79.3083 151.783C79.431 152.259 79.6629 152.615 80.0041 152.853C80.3491 153.091 80.7996 153.209 81.3555 153.209C81.988 153.209 82.4902 153.075 82.8621 152.807C83.2378 152.535 83.4256 152.209 83.4256 151.829C83.4256 151.523 83.3183 151.266 83.1036 151.059C82.8889 150.848 82.5592 150.691 82.1145 150.587L80.6424 150.242C79.8335 150.051 79.2393 149.753 78.8598 149.351C78.4841 148.945 78.2962 148.437 78.2962 147.827C78.2962 147.329 78.4361 146.888 78.716 146.504C78.9997 146.121 79.385 145.82 79.8718 145.602C80.3625 145.383 80.9184 145.274 81.5395 145.274C82.4135 145.274 83.0998 145.466 83.5981 145.849C84.1004 146.232 84.4569 146.738 84.6677 147.367ZM90.7129 145.389V146.539H86.1355V145.389H90.7129ZM87.4696 143.273H88.8268V151.691C88.8268 152.075 88.8823 152.362 88.9935 152.554C89.1085 152.742 89.2542 152.868 89.4306 152.933C89.6107 152.995 89.8005 153.025 89.9999 153.025C90.1494 153.025 90.272 153.018 90.3679 153.002C90.4637 152.983 90.5404 152.968 90.5979 152.956L90.8739 154.176C90.7819 154.21 90.6535 154.245 90.4886 154.279C90.3238 154.317 90.1149 154.337 89.8618 154.337C89.4785 154.337 89.1028 154.254 88.7348 154.089C88.3706 153.924 88.0677 153.673 87.8262 153.336C87.5885 152.999 87.4696 152.573 87.4696 152.059V143.273ZM96.3628 154.406C95.5117 154.406 94.7775 154.218 94.1603 153.842C93.5469 153.462 93.0735 152.933 92.74 152.255C92.4103 151.573 92.2454 150.779 92.2454 149.874C92.2454 148.969 92.4103 148.172 92.74 147.482C93.0735 146.788 93.5374 146.248 94.1316 145.86C94.7296 145.469 95.4273 145.274 96.2247 145.274C96.6848 145.274 97.1391 145.35 97.5876 145.504C98.0361 145.657 98.4444 145.906 98.8125 146.251C99.1805 146.593 99.4738 147.045 99.6923 147.609C99.9108 148.172 100.02 148.866 100.02 149.69V150.265H93.2115V149.092H98.6399C98.6399 148.594 98.5403 148.149 98.3409 147.758C98.1454 147.367 97.8655 147.058 97.5013 146.832C97.141 146.606 96.7154 146.493 96.2247 146.493C95.6842 146.493 95.2165 146.627 94.8216 146.895C94.4306 147.16 94.1297 147.505 93.9188 147.931C93.708 148.356 93.6025 148.812 93.6025 149.299V150.081C93.6025 150.748 93.7175 151.314 93.9476 151.778C94.1814 152.238 94.5054 152.588 94.9194 152.83C95.3334 153.068 95.8145 153.186 96.3628 153.186C96.7193 153.186 97.0413 153.137 97.3288 153.037C97.6202 152.933 97.8713 152.78 98.0821 152.577C98.293 152.37 98.4559 152.113 98.5709 151.806L99.882 152.174C99.744 152.619 99.5121 153.01 99.1862 153.347C98.8604 153.681 98.4578 153.942 97.9786 154.13C97.4994 154.314 96.9608 154.406 96.3628 154.406ZM103.442 142.445V154.222H102.084V142.445H103.442Z" fill="#333333"/>
<rect x="23.7116" y="175.235" width="19.6633" height="19.6633" rx="4.04833" stroke="#CCCCCC" stroke-width="1.15667"/>
<path d="M57.4292 179.458L60.9255 189.372H61.0635L64.5598 179.458H66.0549L61.7305 191.235H60.2584L55.9341 179.458H57.4292ZM67.7053 191.235V182.403H69.0624V191.235H67.7053ZM68.3953 180.931C68.1308 180.931 67.9027 180.84 67.711 180.66C67.5232 180.48 67.4292 180.263 67.4292 180.01C67.4292 179.757 67.5232 179.541 67.711 179.361C67.9027 179.18 68.1308 179.09 68.3953 179.09C68.6599 179.09 68.886 179.18 69.0739 179.361C69.2656 179.541 69.3614 179.757 69.3614 180.01C69.3614 180.263 69.2656 180.48 69.0739 180.66C68.886 180.84 68.6599 180.931 68.3953 180.931ZM72.9051 179.458V191.235H71.548V179.458H72.9051ZM76.7479 179.458V191.235H75.3908V179.458H76.7479ZM81.8327 191.442C81.273 191.442 80.7651 191.337 80.3089 191.126C79.8527 190.911 79.4904 190.603 79.222 190.2C78.9537 189.794 78.8195 189.303 78.8195 188.728C78.8195 188.222 78.9192 187.812 79.1185 187.498C79.3179 187.179 79.5843 186.93 79.9178 186.75C80.2514 186.57 80.6194 186.436 81.0219 186.347C81.4283 186.255 81.8366 186.183 82.2468 186.129C82.7835 186.06 83.2186 186.008 83.5521 185.974C83.8895 185.935 84.1349 185.872 84.2882 185.784C84.4454 185.696 84.524 185.542 84.524 185.324V185.278C84.524 184.71 84.3687 184.27 84.0582 183.955C83.7515 183.641 83.2857 183.484 82.6608 183.484C82.0129 183.484 81.505 183.626 81.1369 183.909C80.7689 184.193 80.5101 184.496 80.3606 184.818L79.0725 184.358C79.3025 183.821 79.6092 183.403 79.9926 183.104C80.3798 182.801 80.8015 182.59 81.2577 182.472C81.7177 182.349 82.1701 182.288 82.6148 182.288C82.8985 182.288 83.2244 182.322 83.5924 182.391C83.9643 182.456 84.3227 182.592 84.6677 182.799C85.0166 183.006 85.306 183.319 85.5361 183.737C85.7661 184.155 85.8811 184.714 85.8811 185.416V191.235H84.524V190.039H84.455C84.363 190.231 84.2096 190.436 83.9949 190.655C83.7802 190.873 83.4946 191.059 83.1381 191.212C82.7816 191.366 82.3465 191.442 81.8327 191.442ZM82.0398 190.223C82.5765 190.223 83.0288 190.118 83.3969 189.907C83.7687 189.696 84.0486 189.424 84.2364 189.09C84.4281 188.757 84.524 188.406 84.524 188.038V186.796C84.4665 186.865 84.34 186.928 84.1444 186.986C83.9528 187.039 83.7304 187.087 83.4774 187.13C83.2282 187.168 82.9848 187.202 82.7471 187.233C82.5132 187.26 82.3235 187.283 82.1778 187.302C81.8251 187.348 81.4954 187.423 81.1887 187.526C80.8858 187.626 80.6405 187.777 80.4526 187.981C80.2686 188.18 80.1766 188.452 80.1766 188.797C80.1766 189.269 80.351 189.625 80.6999 189.867C81.0526 190.104 81.4992 190.223 82.0398 190.223Z" fill="#333333"/>
</svg>
